# xmcd
#
# Track frame offsets: 
#        150
#        36595
#        66605
#        110351
#        184093
#        210363
#
# Disc length: 3010 seconds
#
# Revision: 2
# Processed by: cddbd v1.5.2PL0 Copyright (c) Steve Scherf et al.
# Submitted via: ExactAudioCopyFreeDBPlugin 1.0
#
DISCID=570bc006
DTITLE=Danciak Stanislav - Tri prasatka a vlk
DYEAR=2002
DGENRE=Pohádky
TTITLE0=Jde se do sveta
TTITLE1=Stret s vlkem
TTITLE2=Staveni domecku
TTITLE3=Vlkuv utok
TTITLE4=Vitezstvi nad vlkem
TTITLE5=Navrat domu
EXTD=
EXTT0=
EXTT1=
EXTT2=
EXTT3=
EXTT4=
EXTT5=
PLAYORDER=
